<?xml version="1.0" standalone="no"?>
<!DOCTYPE svg PUBLIC "-//W3C//DTD SVG 20010904//EN"
 "http://www.w3.org/TR/2001/REC-SVG-20010904/DTD/svg10.dtd">
<svg version="1.0" xmlns="http://www.w3.org/2000/svg"
 width="162.000000pt" height="66.000000pt" viewBox="0 0 162.000000 66.000000"
 preserveAspectRatio="xMidYMid meet">
<metadata>
Created by potrace 1.16, written by Peter Selinger 2001-2019
</metadata>
<g transform="translate(-19.000000,133.000000) scale(0.100000,-0.100000)"
fill="#eb1838" stroke="none">
<path d="M228 1303 c-17 -4 -18 -24 -18 -242 l0 -238 68 -65 67 -66 696 -1
c383 -1 708 1 723 5 l26 6 0 298 0 298 -25 6 c-28 7 -1509 6 -1537 -1z m290
-225 l3 -48 37 0 c31 0 45 8 86 50 43 44 55 50 90 50 l40 0 -63 -64 -64 -65
61 -59 c34 -33 62 -63 62 -66 0 -3 -17 -6 -38 -6 -32 0 -45 7 -87 50 l-49 50
-73 0 -73 0 0 73 c0 41 3 77 7 81 4 4 19 6 33 4 22 -3 25 -8 28 -50z m432 -78
l0 -130 -30 0 -30 0 0 130 0 130 30 0 30 0 0 -130z m410 45 l0 -85 -109 0
-110 0 -3 -42 c-3 -39 -6 -43 -30 -46 l-28 -3 0 75 0 76 111 0 c109 0 110 0
107 23 -3 21 -7 22 -111 22 l-107 0 0 33 0 32 140 0 140 0 0 -85z m185 -45 l0
-125 -30 0 -30 0 -3 114 c-1 63 0 121 3 129 3 8 16 12 32 10 l28 -3 0 -125z"/>
</g>
</svg>
